<svg width="18" height="16" viewBox="0 0 18 16" fill="none" xmlns="http://www.w3.org/2000/svg">
<path d="M17.9966 9.67176C17.9955 11.3048 17.3466 12.8708 16.1922 14.0259C15.0378 15.181 13.4722 15.8309 11.8391 15.833H0.753388C0.554475 15.833 0.36371 15.754 0.223058 15.6133C0.0824052 15.4727 0.00338745 15.2819 0.00338745 15.083C0.00338745 14.8841 0.0824052 14.6933 0.223058 14.5527C0.36371 14.412 0.554475 14.333 0.753388 14.333H11.8391C13.0676 14.322 14.242 13.8263 15.1068 12.9537C15.9715 12.0811 16.4567 10.9023 16.4567 9.67382C16.4567 8.44532 15.9715 7.26653 15.1068 6.39396C14.242 5.52139 13.0676 5.02566 11.8391 5.01463H2.84664L5.30101 7.03251C5.37758 7.09489 5.44107 7.17179 5.48784 7.25878C5.53461 7.34576 5.56374 7.44113 5.57356 7.53941C5.58337 7.63769 5.57368 7.73693 5.54504 7.83145C5.5164 7.92597 5.46937 8.01391 5.40665 8.0902C5.34394 8.1665 5.26677 8.22966 5.17958 8.27605C5.09239 8.32244 4.99689 8.35116 4.89858 8.36055C4.80026 8.36994 4.70106 8.35982 4.60666 8.33077C4.51227 8.30171 4.42454 8.2543 4.34851 8.19126L0.277138 4.84363C0.268138 4.83613 0.261387 4.82713 0.252762 4.81926C0.233239 4.80155 0.214711 4.78277 0.197263 4.76301L0.191263 4.75738C0.186013 4.75138 0.179262 4.74688 0.174012 4.74088V4.73863C0.166137 4.72926 0.160513 4.71838 0.153388 4.70863C0.138637 4.68903 0.12499 4.66863 0.112513 4.64751C0.109513 4.64263 0.105388 4.63813 0.102763 4.63288C0.100138 4.62763 0.0933874 4.62051 0.0900124 4.61376C0.0866374 4.60701 0.0821374 4.59351 0.0776374 4.58376C0.0675124 4.56201 0.0588876 4.53988 0.0506376 4.51701L0.0480126 4.51026C0.0405126 4.48888 0.0337624 4.46713 0.0281374 4.44538C0.0225124 4.42363 0.0187627 4.40076 0.0153877 4.37788C0.0131377 4.36401 0.00863769 4.35088 0.00751269 4.33701C0.00638769 4.32313 0.00751269 4.31038 0.00751269 4.29726C0.00751269 4.28413 0.0041374 4.27588 0.0041374 4.26463C0.0041374 4.25338 0.00713769 4.24288 0.00751269 4.23163C0.00788769 4.22038 0.00751269 4.20538 0.00751269 4.19226C0.00751269 4.17913 0.0131377 4.16488 0.0153877 4.15101C0.0187627 4.12813 0.0228874 4.10563 0.0281374 4.08351C0.0333874 4.06138 0.0405126 4.04001 0.0480126 4.01863L0.0506376 4.01188C0.0588876 3.98901 0.0675124 3.96688 0.0776374 3.94513C0.0821374 3.93538 0.0847624 3.92488 0.0900124 3.91513C0.0952624 3.90538 0.0990126 3.90276 0.102763 3.89601C0.106513 3.88926 0.109513 3.88626 0.112513 3.88138C0.124747 3.86028 0.138143 3.83988 0.152637 3.82026C0.159762 3.81051 0.165387 3.79963 0.173262 3.79026V3.78838C0.180762 3.77901 0.190137 3.77263 0.198012 3.76363C0.215262 3.74488 0.232888 3.72613 0.252013 3.70963C0.260638 3.70176 0.267388 3.69276 0.276388 3.68526L0.280137 3.68188L4.35001 0.337635C4.42604 0.274589 4.51376 0.227179 4.60816 0.198128C4.70256 0.169076 4.80176 0.158955 4.90008 0.168345C4.99839 0.177735 5.09389 0.206451 5.18108 0.252844C5.26827 0.299238 5.34544 0.362396 5.40815 0.438693C5.47087 0.514989 5.5179 0.602921 5.54654 0.697442C5.57518 0.791962 5.58487 0.891209 5.57506 0.989484C5.56524 1.08776 5.53611 1.18313 5.48934 1.27012C5.44257 1.35711 5.37908 1.434 5.30251 1.49638L2.84814 3.51463H11.8406C13.4728 3.51682 15.0375 4.16625 16.1916 5.32049C17.3456 6.47474 17.9948 8.03956 17.9966 9.67176Z" fill="white" fill-opacity="0.75"/>
</svg>
