<svg width="22" height="23" viewBox="0 0 22 23" fill="none" xmlns="http://www.w3.org/2000/svg">
<path d="M20.7777 6.91924L13.4445 0.877472C12.7722 0.3124 11.9019 0 11 0C10.0981 0 9.22786 0.3124 8.55561 0.877472L1.22233 6.91924C0.834116 7.24554 0.524323 7.64581 0.313579 8.09342C0.102835 8.54102 -0.00402421 9.02569 0.000115859 9.51514V19.5541C0.000115859 20.468 0.386422 21.3445 1.07405 21.9907C1.76168 22.637 2.6943 23 3.66676 23H18.3333C19.3058 23 20.2384 22.637 20.926 21.9907C21.6137 21.3445 22 20.468 22 19.5541V9.50365C22.0024 9.01613 21.8947 8.53368 21.684 8.08818C21.4733 7.64267 21.1644 7.24425 20.7777 6.91924ZM13.4445 20.7027H8.55561V14.9596C8.55561 14.655 8.68438 14.3628 8.91359 14.1474C9.1428 13.932 9.45367 13.811 9.77782 13.811H12.2222C12.5464 13.811 12.8573 13.932 13.0865 14.1474C13.3157 14.3628 13.4445 14.655 13.4445 14.9596V20.7027ZM19.5555 19.5541C19.5555 19.8588 19.4268 20.1509 19.1976 20.3663C18.9683 20.5817 18.6575 20.7027 18.3333 20.7027H15.8889V14.9596C15.8889 14.0457 15.5026 13.1692 14.815 12.523C14.1273 11.8768 13.1947 11.5137 12.2222 11.5137H9.77782C8.80537 11.5137 7.87275 11.8768 7.18512 12.523C6.49749 13.1692 6.11118 14.0457 6.11118 14.9596V20.7027H3.66676C3.34261 20.7027 3.03173 20.5817 2.80252 20.3663C2.57331 20.1509 2.44454 19.8588 2.44454 19.5541V9.50365C2.44476 9.34056 2.48193 9.17939 2.55359 9.03085C2.62524 8.88231 2.72972 8.74982 2.8601 8.64218L10.1934 2.6119C10.4164 2.42775 10.7032 2.32619 11 2.32619C11.2969 2.32619 11.5837 2.42775 11.8067 2.6119L19.14 8.64218C19.2704 8.74982 19.3748 8.88231 19.4465 9.03085C19.5181 9.17939 19.5553 9.34056 19.5555 9.50365V19.5541Z" fill="white" fill-opacity="0.75"/>
</svg>
