<svg width="31" height="3" viewBox="0 0 31 3" fill="none" xmlns="http://www.w3.org/2000/svg">
<path d="M0.523121 1.67948C0.494891 1.82323 0.4959 1.96574 0.526091 2.09877C0.556283 2.23181 0.615059 2.35275 0.699028 2.45461C0.782999 2.55648 0.890501 2.63725 1.01533 2.69227C1.14017 2.74729 1.27986 2.77547 1.42635 2.77519L29.6532 2.83419C29.7995 2.83509 29.9499 2.80751 30.0957 2.75306C30.2416 2.6986 30.3801 2.61834 30.5031 2.51691C30.6262 2.41548 30.7314 2.29489 30.8127 2.16208C30.8939 2.02928 30.9497 1.88689 30.9767 1.74314C31.005 1.59939 31.004 1.45689 30.9738 1.32385C30.9436 1.19081 30.8848 1.06988 30.8008 0.968012C30.7169 0.866148 30.6094 0.785376 30.4845 0.730354C30.3597 0.675332 30.22 0.647152 30.0735 0.647435L1.84667 0.588432C1.70041 0.587538 1.55 0.615112 1.40412 0.669567C1.25825 0.724023 1.11979 0.804281 0.996746 0.905712C0.8737 1.00714 0.768498 1.12774 0.687208 1.26054C0.605919 1.39335 0.550152 1.53573 0.523121 1.67948Z" fill="#DDEAFF"/>
</svg>
