<svg width="34" height="29" viewBox="0 0 34 29" fill="none" xmlns="http://www.w3.org/2000/svg">
<g filter="url(#filter0_d_138_5)">
<path d="M12.325 17.1167C11.3333 17.825 10.0583 18.25 8.78333 18.25H5.66667C4.81667 18.25 4.25 18.8167 4.25 19.6667C4.25 20.5167 4.81667 21.0833 5.66667 21.0833H8.78333C10.625 21.0833 12.4667 20.5167 14.025 19.3833C14.5917 18.9583 14.7333 17.9667 14.3083 17.4C13.7417 16.6917 12.8917 16.55 12.325 17.1167ZM18.4167 12.1583C18.8417 12.1583 19.2667 12.0167 19.55 11.7333C20.5417 10.4583 22.1 9.75001 23.8 9.75001H24.9333L24.5083 10.175C23.9417 10.7417 23.9417 11.5917 24.5083 12.1583C24.7917 12.4417 25.2167 12.5833 25.5 12.5833C25.7833 12.5833 26.2083 12.4417 26.4917 12.1583L29.325 9.32501C29.4667 9.18334 29.6083 9.04168 29.6083 8.90001C29.75 8.61668 29.75 8.19168 29.6083 7.76668C29.4667 7.62501 29.4667 7.48334 29.325 7.34168L26.4917 4.50834C25.925 3.94168 25.075 3.94168 24.5083 4.50834C23.9417 5.07501 23.9417 5.92501 24.5083 6.49168L24.9333 6.91668H23.8C21.25 6.91668 18.9833 8.05001 17.2833 9.89168C16.7167 10.4583 16.8583 11.3083 17.425 11.875C17.7083 12.1583 18.1333 12.1583 18.4167 12.1583Z" fill="white"/>
<path d="M29.325 18.675L26.4917 15.8417C25.925 15.275 25.075 15.275 24.5083 15.8417C23.9417 16.4083 23.9417 17.2583 24.5083 17.825L24.9333 18.25H22.8083C20.5417 18.25 18.7 16.975 17.7083 14.9917L16.0083 11.5917C14.5917 8.75832 11.6167 6.91666 8.35833 6.91666H5.66667C4.81667 6.91666 4.25 7.48332 4.25 8.33332C4.25 9.18332 4.81667 9.74999 5.66667 9.74999H8.35833C10.625 9.74999 12.4667 11.025 13.4583 13.0083L15.1583 16.4083C16.575 19.3833 19.55 21.225 22.8083 21.225H24.9333L24.5083 21.65C23.9417 22.2167 23.9417 23.0667 24.5083 23.6333C24.7917 23.9167 25.2167 24.0583 25.5 24.0583C25.7833 24.0583 26.2083 23.9167 26.4917 23.6333L29.325 20.8C29.8917 20.0917 29.8917 19.2417 29.325 18.675Z" fill="white"/>
</g>
<defs>
<filter id="filter0_d_138_5" x="0.25" y="0.0833435" width="33.5" height="27.975" filterUnits="userSpaceOnUse" color-interpolation-filters="sRGB">
<feFlood flood-opacity="0" result="BackgroundImageFix"/>
<feColorMatrix in="SourceAlpha" type="matrix" values="0 0 0 0 0 0 0 0 0 0 0 0 0 0 0 0 0 0 127 0" result="hardAlpha"/>
<feOffset/>
<feGaussianBlur stdDeviation="2"/>
<feComposite in2="hardAlpha" operator="out"/>
<feColorMatrix type="matrix" values="0 0 0 0 1 0 0 0 0 1 0 0 0 0 1 0 0 0 0.25 0"/>
<feBlend mode="normal" in2="BackgroundImageFix" result="effect1_dropShadow_138_5"/>
<feBlend mode="normal" in="SourceGraphic" in2="effect1_dropShadow_138_5" result="shape"/>
</filter>
</defs>
</svg>
