<svg width="25" height="17" viewBox="0 0 25 17" fill="none" xmlns="http://www.w3.org/2000/svg">
<path d="M8.875 6.08332C8.55453 6.08332 8.24719 6.21063 8.02058 6.43724C7.79397 6.66384 7.66667 6.97119 7.66667 7.29166V9.70832C7.66667 10.0288 7.79397 10.3361 8.02058 10.5627C8.24719 10.7894 8.55453 10.9167 8.875 10.9167C9.19547 10.9167 9.50281 10.7894 9.72942 10.5627C9.95603 10.3361 10.0833 10.0288 10.0833 9.70832V7.29166C10.0833 6.97119 9.95603 6.66384 9.72942 6.43724C9.50281 6.21063 9.19547 6.08332 8.875 6.08332ZM23.375 7.29166C23.6955 7.29166 24.0028 7.16435 24.2294 6.93774C24.456 6.71114 24.5833 6.40379 24.5833 6.08332V1.24999C24.5833 0.92952 24.456 0.622176 24.2294 0.395569C24.0028 0.168963 23.6955 0.0416565 23.375 0.0416565H1.625C1.30453 0.0416565 0.997186 0.168963 0.77058 0.395569C0.543973 0.622176 0.416667 0.92952 0.416667 1.24999V6.08332C0.416667 6.40379 0.543973 6.71114 0.77058 6.93774C0.997186 7.16435 1.30453 7.29166 1.625 7.29166C1.94547 7.29166 2.25281 7.41896 2.47942 7.64557C2.70603 7.87218 2.83333 8.17952 2.83333 8.49999C2.83333 8.82046 2.70603 9.1278 2.47942 9.35441C2.25281 9.58102 1.94547 9.70832 1.625 9.70832C1.30453 9.70832 0.997186 9.83563 0.77058 10.0622C0.543973 10.2888 0.416667 10.5962 0.416667 10.9167V15.75C0.416667 16.0705 0.543973 16.3778 0.77058 16.6044C0.997186 16.831 1.30453 16.9583 1.625 16.9583H23.375C23.6955 16.9583 24.0028 16.831 24.2294 16.6044C24.456 16.3778 24.5833 16.0705 24.5833 15.75V10.9167C24.5833 10.5962 24.456 10.2888 24.2294 10.0622C24.0028 9.83563 23.6955 9.70832 23.375 9.70832C23.0545 9.70832 22.7472 9.58102 22.5206 9.35441C22.294 9.1278 22.1667 8.82046 22.1667 8.49999C22.1667 8.17952 22.294 7.87218 22.5206 7.64557C22.7472 7.41896 23.0545 7.29166 23.375 7.29166ZM22.1667 5.09249C21.4669 5.34649 20.8622 5.80979 20.4349 6.41944C20.0076 7.02909 19.7784 7.75551 19.7784 8.49999C19.7784 9.24447 20.0076 9.97089 20.4349 10.5805C20.8622 11.1902 21.4669 11.6535 22.1667 11.9075V14.5417H10.0833C10.0833 14.2212 9.95603 13.9138 9.72942 13.6872C9.50281 13.4606 9.19547 13.3333 8.875 13.3333C8.55453 13.3333 8.24719 13.4606 8.02058 13.6872C7.79397 13.9138 7.66667 14.2212 7.66667 14.5417H2.83333V11.9075C3.53314 11.6535 4.13778 11.1902 4.56507 10.5805C4.99236 9.97089 5.22158 9.24447 5.22158 8.49999C5.22158 7.75551 4.99236 7.02909 4.56507 6.41944C4.13778 5.80979 3.53314 5.34649 2.83333 5.09249V2.45832H7.66667C7.66667 2.77879 7.79397 3.08614 8.02058 3.31274C8.24719 3.53935 8.55453 3.66666 8.875 3.66666C9.19547 3.66666 9.50281 3.53935 9.72942 3.31274C9.95603 3.08614 10.0833 2.77879 10.0833 2.45832H22.1667V5.09249Z" fill="white" fill-opacity="0.75"/>
</svg>
