<svg width="29" height="25" viewBox="0 0 29 25" fill="none" xmlns="http://www.w3.org/2000/svg">
<g filter="url(#filter0_d_15_1707)">
<path d="M10.875 10.0833C10.5545 10.0833 10.2472 10.2106 10.0206 10.4372C9.79398 10.6638 9.66667 10.9712 9.66667 11.2917V13.7083C9.66667 14.0288 9.79398 14.3361 10.0206 14.5627C10.2472 14.7894 10.5545 14.9167 10.875 14.9167C11.1955 14.9167 11.5028 14.7894 11.7294 14.5627C11.956 14.3361 12.0833 14.0288 12.0833 13.7083V11.2917C12.0833 10.9712 11.956 10.6638 11.7294 10.4372C11.5028 10.2106 11.1955 10.0833 10.875 10.0833ZM25.375 11.2917C25.6955 11.2917 26.0028 11.1644 26.2294 10.9377C26.456 10.7111 26.5833 10.4038 26.5833 10.0833V5.24999C26.5833 4.92952 26.456 4.62218 26.2294 4.39557C26.0028 4.16896 25.6955 4.04166 25.375 4.04166H3.62501C3.30454 4.04166 2.99719 4.16896 2.77058 4.39557C2.54398 4.62218 2.41667 4.92952 2.41667 5.24999V10.0833C2.41667 10.4038 2.54398 10.7111 2.77058 10.9377C2.99719 11.1644 3.30454 11.2917 3.62501 11.2917C3.94548 11.2917 4.25282 11.419 4.47943 11.6456C4.70603 11.8722 4.83334 12.1795 4.83334 12.5C4.83334 12.8205 4.70603 13.1278 4.47943 13.3544C4.25282 13.581 3.94548 13.7083 3.62501 13.7083C3.30454 13.7083 2.99719 13.8356 2.77058 14.0622C2.54398 14.2888 2.41667 14.5962 2.41667 14.9167V19.75C2.41667 20.0705 2.54398 20.3778 2.77058 20.6044C2.99719 20.831 3.30454 20.9583 3.62501 20.9583H25.375C25.6955 20.9583 26.0028 20.831 26.2294 20.6044C26.456 20.3778 26.5833 20.0705 26.5833 19.75V14.9167C26.5833 14.5962 26.456 14.2888 26.2294 14.0622C26.0028 13.8356 25.6955 13.7083 25.375 13.7083C25.0545 13.7083 24.7472 13.581 24.5206 13.3544C24.294 13.1278 24.1667 12.8205 24.1667 12.5C24.1667 12.1795 24.294 11.8722 24.5206 11.6456C24.7472 11.419 25.0545 11.2917 25.375 11.2917ZM24.1667 9.09249C23.4669 9.34649 22.8622 9.80979 22.4349 10.4194C22.0077 11.0291 21.7784 11.7555 21.7784 12.5C21.7784 13.2445 22.0077 13.9709 22.4349 14.5805C22.8622 15.1902 23.4669 15.6535 24.1667 15.9075V18.5417H12.0833C12.0833 18.2212 11.956 17.9138 11.7294 17.6872C11.5028 17.4606 11.1955 17.3333 10.875 17.3333C10.5545 17.3333 10.2472 17.4606 10.0206 17.6872C9.79398 17.9138 9.66667 18.2212 9.66667 18.5417H4.83334V15.9075C5.53315 15.6535 6.13778 15.1902 6.56507 14.5805C6.99236 13.9709 7.22158 13.2445 7.22158 12.5C7.22158 11.7555 6.99236 11.0291 6.56507 10.4194C6.13778 9.80979 5.53315 9.34649 4.83334 9.09249V6.45832H9.66667C9.66667 6.77879 9.79398 7.08614 10.0206 7.31274C10.2472 7.53935 10.5545 7.66666 10.875 7.66666C11.1955 7.66666 11.5028 7.53935 11.7294 7.31274C11.956 7.08614 12.0833 6.77879 12.0833 6.45832H24.1667V9.09249Z" fill="white"/>
</g>
<defs>
<filter id="filter0_d_15_1707" x="-1.58333" y="0.0416565" width="32.1667" height="24.9167" filterUnits="userSpaceOnUse" color-interpolation-filters="sRGB">
<feFlood flood-opacity="0" result="BackgroundImageFix"/>
<feColorMatrix in="SourceAlpha" type="matrix" values="0 0 0 0 0 0 0 0 0 0 0 0 0 0 0 0 0 0 127 0" result="hardAlpha"/>
<feOffset/>
<feGaussianBlur stdDeviation="2"/>
<feComposite in2="hardAlpha" operator="out"/>
<feColorMatrix type="matrix" values="0 0 0 0 1 0 0 0 0 1 0 0 0 0 1 0 0 0 0.25 0"/>
<feBlend mode="normal" in2="BackgroundImageFix" result="effect1_dropShadow_15_1707"/>
<feBlend mode="normal" in="SourceGraphic" in2="effect1_dropShadow_15_1707" result="shape"/>
</filter>
</defs>
</svg>
